<svg width="60" height="61" viewBox="0 0 60 61" fill="none" xmlns="http://www.w3.org/2000/svg">
<path d="M26.4604 0C19.1426 0.978121 12.428 4.57721 7.56216 10.1296C2.69628 15.682 0.00941986 22.8108 0 30.1936L0.0695019 32.2588C0.606298 40.2403 4.25718 47.6915 10.2355 53.0068C16.2138 58.322 24.041 61.076 32.0304 60.6752C38.5021 60.3491 44.7018 57.9705 49.7308 53.8842C54.7597 49.7978 58.3566 44.216 60 37.948C55.513 42.6277 49.4074 45.4159 42.9323 45.7422C36.2736 46.0748 29.7509 43.7778 24.7698 39.3465C19.7886 34.9151 16.748 28.7041 16.3032 22.052L16.2436 20.3343C16.2494 16.3841 17.1757 12.4896 18.9492 8.95989C20.7227 5.43018 23.2944 2.3624 26.4604 0Z" fill="#261C3C"/>
</svg>
