<svg width="60" height="61" viewBox="0 0 60 61" fill="none" xmlns="http://www.w3.org/2000/svg">
<path d="M29.6618 0.173392L23.6709 12.9763C27.974 12.3539 32.3442 12.3539 36.6473 12.9763L30.2682 0.213268C30.245 0.153907 30.2053 0.102393 30.1538 0.0647526C30.1024 0.0271125 30.0413 0.00490285 29.9777 0.000722548C29.9141 -0.00345775 29.8506 0.0105639 29.7946 0.0411471C29.7387 0.0717304 29.6926 0.117611 29.6618 0.17342V0.173392Z" fill="white"/>
<path d="M29.6618 59.8377L23.6709 47.0393C27.974 47.6615 32.3442 47.6615 36.6473 47.0393L30.2682 59.7978C30.245 59.8572 30.2053 59.9087 30.1538 59.9463C30.1024 59.984 30.0413 60.0062 29.9777 60.0103C29.9141 60.0145 29.8506 60.0005 29.7946 59.9699C29.7387 59.9393 29.6926 59.8935 29.6618 59.8377V59.8377Z" fill="white"/>
<path d="M30.0574 46.0053C39.0157 46.0053 46.2778 38.7431 46.2778 29.7848C46.2778 20.8265 39.0157 13.5644 30.0574 13.5644C21.0991 13.5644 13.8369 20.8265 13.8369 29.7848C13.8369 38.7431 21.0991 46.0053 30.0574 46.0053Z" fill="white"/>
<path d="M59.8264 29.6798L47.0355 23.6819C47.6549 27.9853 47.6524 32.3555 47.0278 36.6582L59.7863 30.2861C59.8456 30.2629 59.8971 30.2233 59.9348 30.1718C59.9725 30.1204 59.9947 30.0593 59.9989 29.9957C60.0031 29.9321 59.9892 29.8686 59.9586 29.8127C59.9281 29.7567 59.8822 29.7106 59.8265 29.6798L59.8264 29.6798Z" fill="white"/>
<path d="M50.7602 9.04793L38.1909 13.5005C41.4757 15.9071 44.3974 18.7733 46.8667 22.0112L51.139 9.4717C51.1623 9.41685 51.1695 9.35647 51.1598 9.29765C51.1501 9.23883 51.1239 9.18398 51.0842 9.13953C51.0444 9.09508 50.9929 9.06286 50.9355 9.04664C50.8781 9.03041 50.8173 9.03086 50.7602 9.04793V9.04793Z" fill="white"/>
<path d="M50.6212 50.2928L46.3979 37.732C43.9079 41.0921 40.9663 44.0928 37.6562 46.649L50.187 50.6832C50.2435 50.706 50.3051 50.7124 50.365 50.7018C50.4249 50.6913 50.4807 50.6641 50.5259 50.6234C50.5711 50.5828 50.6041 50.5302 50.6209 50.4718C50.6378 50.4133 50.6379 50.3513 50.6212 50.2928L50.6212 50.2928Z" fill="white"/>
<path d="M0.182215 29.2857L13.1506 23.6819C12.3998 27.9644 12.2687 32.3326 12.7614 36.6524L0.203853 29.893C0.145233 29.868 0.0949534 29.8268 0.0588908 29.7742C0.0228282 29.7216 0.00247533 29.6599 0.000211801 29.5962C-0.00205172 29.5325 0.0138662 29.4695 0.0461073 29.4145C0.0783485 29.3595 0.125578 29.3148 0.182274 29.2857L0.182215 29.2857Z" fill="white"/>
<path d="M9.85846 8.97978L22.4294 13.4324C19.1443 15.8389 16.2221 18.7051 13.7525 21.943L9.47967 9.40359C9.45632 9.34873 9.44907 9.28835 9.45878 9.22952C9.46848 9.17069 9.49474 9.11585 9.53447 9.07139C9.57421 9.02694 9.62578 8.99471 9.68315 8.97849C9.74053 8.96227 9.80133 8.96272 9.85846 8.97978H9.85846Z" fill="white"/>
<path d="M9.06854 50.3317L13.2923 37.7709C15.7825 41.1311 18.7244 44.1318 22.0348 46.6879L9.50281 50.7221C9.44639 50.7449 9.38472 50.7513 9.3248 50.7408C9.26489 50.7302 9.20914 50.7031 9.1639 50.6624C9.11866 50.6217 9.08574 50.5692 9.06888 50.5107C9.05202 50.4523 9.05191 50.3903 9.06855 50.3317L9.06854 50.3317Z" fill="white"/>
</svg>
